<?xml version="1.0" encoding="UTF-8" standalone="no"?>


<svg width="589.19531mm" height="114.55872mm" viewBox="0 0 589.19531 114.55871" version="1.1" id="svg1" xml:space="preserve" xmlns:inkscape="http://www.inkscape.org/namespaces/inkscape" xmlns:inkscape="http://www.inkscape.org/namespaces/inkscape" inkscape:version="1.3.2 (091e20e, 2023-11-25, custom)" xmlns:sodipodi-0.dtd="http://sodipodi.sourceforge.net/DTD/sodipodi-0.dtd" xmlns:sodipodi-0.dtd="http://sodipodi.sourceforge.net/DTD/sodipodi-0.dtd" sodipodi-0.dtd:docname="ResonateLogo.svg" xmlns:sodipodi="http://sodipodi.sourceforge.net/DTD/sodipodi-0.dtd" xmlns="http://www.w3.org/2000/svg" xmlns:svg="http://www.w3.org/2000/svg"><namedview id="namedview1" pagecolor="#ffffff" bordercolor="#000000" borderopacity="0.25" inkscape:showpageshadow="2" inkscape:pageopacity="0.0" inkscape:pagecheckerboard="0" inkscape:deskcolor="#d1d1d1" inkscape:document-units="mm" inkscape:zoom="0.52248527" inkscape:cx="1107.2082" inkscape:cy="726.33627" inkscape:window-width="2560" inkscape:window-height="1369" inkscape:window-x="1912" inkscape:window-y="-8" inkscape:window-maximized="1" inkscape:current-layer="layer1"></namedview><defs id="defs1"></defs><g inkscape:label="Layer 1" inkscape:groupmode="layer" id="layer1" transform="translate(188.76175,-91.335703)"><path style="fill:#f1cb13;stroke:none" d="M -188.76175,91.477001 V 105.447 c 8.13211,0 16.25107,0.0847 24.384,0.0847 5.37721,0 11.43508,-0.22446 16.34067,2.30789 8.78795,4.53646 11.53093,17.21848 7.17472,25.71677 -1.45,2.82872 -3.67564,5.0863 -6.41272,6.68769 -6.03439,3.53056 -13.2917,3.64165 -20.066,3.64165 h -21.42067 v 14.1393 h 20.48934 c 4.39657,0 8.85133,-0.24172 13.208,0.40034 5.12194,0.75484 10.54414,2.93205 13.51661,7.38899 1.29318,1.939 2.45599,4.29714 2.87279,6.604 0.48492,2.68388 0.20526,5.57659 0.20526,8.29734 v 13.54666 5.67267 c 0,1.03897 -0.11127,2.12677 0.4707,3.048 0.72031,1.14021 2.08918,1.60571 3.3393,1.8922 2.60874,0.59783 5.69887,0.58851 8.29734,-0.0613 1.19297,-0.29832 2.42805,-0.81543 3.0921,-1.91559 0.77525,-1.28441 0.4639,-3.1373 0.4639,-4.572 v -10.16 -11.00666 c 0,-3.90409 0.005,-7.6243 -1.35917,-11.34534 -1.37754,-3.75712 -3.79795,-6.85154 -6.5995,-9.652 -1.54466,-1.54406 -3.51438,-3.37292 -5.50333,-4.318 V 151.675 c 1.28607,-0.48676 2.50634,-1.60913 3.556,-2.4765 3.38724,-2.79898 5.97573,-6.49394 7.60308,-10.56217 5.22845,-13.07066 2.95408,-30.65457 -8.53442,-39.737009 -7.00353,-5.53677 -15.97667,-6.96168 -24.638,-7.34098 -10.13535,-0.44386 -20.33587,-0.0881 -30.48,-0.0813 m 483.27734,33.104669 h -4.23333 c -0.88143,0 -1.76506,-0.0702 -2.53992,0.43215 -2.48167,1.60895 -2.43276,6.431 -1.76489,8.96585 0.25226,0.95743 0.68312,1.88313 1.51081,2.47316 0.85266,0.60784 1.88297,0.57484 2.87867,0.57484 h 4.14866 c 0,16.88139 -0.0847,33.75274 -0.0847,50.63066 v 11.176 c 0,2.17583 0.30708,4.25705 2.54,5.24601 0.77944,0.34522 1.61635,0.51141 2.45533,0.6316 3.05937,0.43829 8.34339,0.53201 9.52331,-3.08361 0.68047,-2.08515 0.29802,-4.69086 0.29802,-6.858 v -13.29266 -44.45 h 9.906 c 1.45687,0 3.25616,0.29667 4.572,-0.45195 0.95866,-0.5454 1.51383,-1.55781 1.7878,-2.59605 0.68358,-2.59053 0.91666,-7.46306 -1.87246,-8.96415 -1.34979,-0.72645 -3.17769,-0.43385 -4.65667,-0.43385 h -9.652 V 107.479 c 0,-2.12595 0.59581,-5.33065 -0.60031,-7.19667 -0.69706,-1.087439 -1.91075,-1.639979 -3.12502,-1.936359 -3.12138,-0.76186 -9.00708,-0.93987 -10.6265,2.529029 -0.9988,2.13948 -0.46484,5.22771 -0.46484,7.53533 v 16.17134 M -1.3944127,120.38426 c -1.2835393,0.16854 -2.6032727,0.0889 -3.8946667,0.24225 -4.038121,0.47958 -8.0859976,1.34848 -11.7686666,3.13037 -3.665089,1.7734 -6.966975,4.24447 -9.222,7.68279 -3.775904,5.75723 -4.456679,14.05755 -1.589195,20.32 1.257308,2.7459 3.191174,5.12074 5.477195,7.07574 4.351135,3.72109 9.627381,5.75716 14.9859996,7.54336 6.2280233,2.07602 12.6114684,3.7858 18.7113344,6.22582 1.42846,0.5714 2.982371,1.14297 4.233333,2.0565 3.235937,2.36308 4.098995,6.04852 2.986981,9.77991 -1.280852,4.29797 -5.331706,6.66506 -9.5063146,7.5015 -2.481523,0.49719 -4.9267484,0.6265 -7.4506667,0.6265 -5.4044454,0 -11.1694481,-0.79398 -15.6633337,-4.04244 -1.826886,-1.32059 -3.334773,-3.06525 -4.451139,-5.01689 -0.870045,-1.52104 -1.225506,-3.11693 -2.745527,-4.16781 -2.526533,-1.74675 -5.952547,-0.60684 -8.297334,0.85006 -0.649221,0.40338 -1.246983,0.90319 -1.774672,1.45508 -4.077343,4.2644 0.98085,10.44381 4.14567,13.63127 0.712018,0.71711 1.492126,1.38871 2.285669,2.01422 6.725419,5.3014 15.5058436,7.10533 23.876,7.47184 4.0256561,0.17628 8.0414317,0.0745 12.022667,-0.61716 4.942748,-0.85875 9.750702,-2.7142 13.885334,-5.569 10.964808,-7.57073 13.07114,-24.79229 2.794,-33.84033 -4.137567,-3.64273 -9.10514,-5.62694 -14.224001,-7.44877 -4.7158878,-1.67842 -9.4746465,-3.24073 -14.22399998,-4.82385 l -2.87866672,-0.95955 c -4.6766547,-1.55889 -11.6950693,-3.76434 -11.4266723,-9.906 0.03617,-0.82776 0.212907,-1.67218 0.476519,-2.45534 1.959942,-5.82299 9.4705126,-6.29179 14.59082002,-6.516 0.9009682,-0.0395 1.80528508,0.0813 2.70933328,0.0813 1.4900176,9e-5 3.0162501,0.17466 4.4873334,0.41653 1.8425749,0.30296 3.7285993,0.73503 5.4186673,1.55268 1.417691,0.68588 2.756049,1.5045 3.891339,2.61036 1.262744,1.23002 2.00827,2.57953 3.813328,3.08883 2.890242,0.81548 6.303884,-0.30951 8.720666,-1.9114 0.539172,-0.35737 1.046965,-0.76629 1.45587,-1.26974 3.13984,-3.86574 -1.919304,-8.1297 -4.842536,-10.31855 -5.535621,-4.14496 -12.748122,-5.53323 -19.4733343,-6.20569 -2.4050005,-0.24048 -5.1264055,-0.60472 -7.5353334,-0.28843 M 140.08359,132.96367 c 5.9208,0 11.85263,0.0847 17.78,0.0847 3.81132,0 7.59545,-0.39556 11.176,1.13686 5.00844,2.14354 8.41032,6.86284 10.49859,11.73248 1.20352,2.80651 2.08264,5.70682 2.58791,8.72066 0.8317,4.96115 0.54484,10.05589 0.54484,15.07067 v 23.114 7.28133 c 0,1.20119 -0.16537,2.52506 0.58658,3.55594 1.18604,1.62596 3.73166,1.94718 5.59408,2.02874 2.41296,0.10565 6.21221,0.17168 7.93085,-1.86058 1.28351,-1.51778 0.78982,-4.25261 0.78982,-6.09476 v -15.24 -15.07067 c 0,-4.18331 0.0498,-8.36871 -0.35305,-12.53067 -0.70094,-7.24099 -2.90343,-14.40971 -6.95652,-20.48933 -1.24896,-1.87342 -2.69995,-3.57485 -4.28976,-5.16467 -1.96788,-1.96788 -4.24016,-3.64482 -6.68867,-4.9692 -7.68019,-4.15416 -15.97232,-3.78942 -24.384,-3.58337 -4.96687,0.12167 -9.94069,-0.05 -14.90134,0.16724 -3.06902,0.13438 -6.19137,-0.26374 -9.22866,0.30907 -1.50294,0.28345 -3.10096,0.86553 -3.93973,2.23426 -0.73366,1.19721 -0.54761,2.7231 -0.54761,4.064 v 8.04334 30.734 c 0,9.43053 -0.0847,18.84761 -0.0847,28.27866 v 6.26534 c 0,1.31594 0.0431,2.604 1.18566,3.47983 2.33495,1.78983 6.68881,1.74432 9.39767,0.97131 1.29782,-0.37036 2.65495,-1.0272 3.08413,-2.41914 0.37772,-1.22502 0.1332,-2.7915 0.1332,-4.064 v -8.29734 -27.432 c 0,-10.01492 0.0847,-20.03585 0.0847,-30.05666 M 77.514922,120.5536 c -3.017656,0.39622 -5.982064,0.49666 -8.974667,1.2048 -7.247475,1.71496 -14.157544,5.81124 -18.928478,11.54393 -3.587006,4.3101 -5.870794,9.49325 -7.222815,14.90134 -0.959362,3.83743 -1.365767,7.74754 -1.538035,11.684 -0.562901,12.86249 2.134319,27.11199 12.110661,36.13829 8.67083,7.84513 21.114123,10.06579 32.427334,8.5418 9.949057,-1.34024 19.400828,-6.46021 25.143848,-14.79276 4.8179,-6.99028 6.66736,-15.77884 7.03282,-24.13 0.5822,-13.30382 -1.98709,-27.64234 -12.70333,-36.6966 -1.7348,-1.46574 -3.57434,-2.81412 -5.588004,-3.87729 -3.284927,-1.73435 -6.775484,-2.92831 -10.414001,-3.65595 -2.495455,-0.49905 -5.002361,-0.70525 -7.535333,-0.81616 -1.249247,-0.0547 -2.560609,-0.20945 -3.81,-0.0454 m 186.774668,74.13207 v 6.01133 c 0,1.08168 -0.12538,2.19511 0.52669,3.13234 0.63839,0.9176 1.81624,1.37325 2.85998,1.64035 2.22539,0.56952 5.15293,0.57765 7.366,-0.0445 0.99611,-0.28003 2.03903,-0.8033 2.63178,-1.6802 0.60081,-0.88882 0.50089,-1.94504 0.50089,-2.96333 V 195.617 142.785 c 0,-4.51361 0.0847,-9.02803 0.0847,-13.54667 0,-1.81436 0.41718,-4.28616 -0.7188,-5.84193 -1.25424,-1.71774 -3.51118,-1.99229 -5.46186,-2.22557 -4.60545,-0.55079 -9.34467,0.0793 -13.97,-0.23741 -3.59854,-0.24643 -7.22941,-0.0746 -10.83734,-0.16299 -3.20993,-0.0786 -6.34913,-0.37555 -9.56733,-0.0691 -6.93696,0.66065 -13.7074,3.25116 -18.796,8.11696 -2.93324,2.80481 -5.08794,6.03583 -7.03908,9.564 -1.85361,3.35177 -2.9465,7.20281 -3.76233,10.922 -0.98446,4.48783 -1.24974,9.148 -1.13783,13.716 0.25259,10.31225 2.64749,20.49593 8.81939,28.956 2.93567,4.02405 6.72703,7.42653 11.16318,9.71478 8.33934,4.30158 19.42778,4.80273 27.94,0.75678 3.8246,-1.81787 6.57965,-4.70214 9.398,-7.76222 M -98.845751,166.661 h 59.012671 c 0.142059,-6.88844 0.686418,-14.22202 -0.921535,-20.99733 -1.179907,-4.97171 -3.826175,-9.64948 -7.298707,-13.37734 -7.481363,-8.03144 -17.576736,-11.43 -28.355758,-11.43 -7.130097,0 -14.204218,1.58774 -20.235331,5.53247 -7.653059,5.00559 -12.933109,13.29868 -15.249799,22.06887 -4.26259,16.13671 -3.21091,35.34039 9.57713,47.41634 2.01821,1.90582 4.392349,3.52849 6.857999,4.8011 4.199651,2.16761 8.796291,3.45868 13.462001,4.1343 12.962806,1.87707 27.402493,-0.8947 35.849936,-11.73241 1.839619,-2.36015 3.273909,-5.01509 4.38365,-7.78933 0.444107,-1.11023 1.040867,-2.32911 0.890178,-3.556 -0.270216,-2.20004 -2.017665,-3.37596 -4.039764,-3.88395 -3.022885,-0.75942 -6.884644,-1.01014 -9.567333,0.87318 -1.91332,1.34321 -2.561249,3.73713 -3.783935,5.63543 -1.893538,2.93986 -4.533377,5.44861 -7.730732,6.91654 -8.849083,4.06267 -20.638089,1.4433 -26.787337,-6.06987 -4.233424,-5.17242 -6.063334,-11.9429 -6.063334,-18.542 m 440.097341,0 h 44.53467 10.83733 2.70934 c 0.25139,0 0.73732,0.0901 0.91616,-0.13575 0.21117,-0.26661 0.0857,-0.81644 0.1074,-1.13425 0.0716,-1.0454 0.0771,-2.0825 0.0771,-3.13267 0,-4.0203 -0.022,-8.02417 -0.40894,-12.02266 -0.29815,-3.08149 -0.87813,-6.02042 -2.08231,-8.89 -3.82547,-9.11613 -12.06827,-16.01846 -21.46941,-18.81965 -4.14011,-1.23361 -8.39908,-1.66969 -12.7,-1.66969 -6.07835,0 -12.08414,1.10779 -17.526,3.91655 -15.3214,7.90797 -20.86149,26.49104 -20.15402,42.65012 0.38543,8.80299 2.44198,17.51275 8.04701,24.55333 7.65841,9.61987 19.82515,13.37734 31.74967,13.37734 11.3066,0 23.083,-4.24553 29.41435,-14.13934 1.37228,-2.14438 2.48915,-4.39113 3.38754,-6.77333 0.56803,-1.50627 0.91488,-3.15052 -0.10265,-4.572 -1.19736,-1.67275 -3.43731,-2.14583 -5.3519,-2.39451 -2.78201,-0.36135 -5.88603,-0.22248 -8.128,1.66969 -1.48361,1.25211 -2.07562,3.33925 -3.08401,4.95815 -1.65402,2.65542 -3.90641,4.99881 -6.65266,6.53104 -8.32532,4.64495 -20.66921,2.75456 -27.07895,-4.3297 -4.82819,-5.33627 -7.04072,-12.52402 -7.04172,-19.64267 M 77.599589,132.90317 c 1.186925,-0.14004 2.45525,-0.0287 3.640666,0.0529 8.280921,0.57025 14.776959,5.60099 18.130429,13.13091 1.189526,2.67097 1.995286,5.50114 2.478586,8.382 0.38754,2.30991 0.50546,4.60817 0.55889,6.94267 0.25905,11.31785 -2.959755,25.21983 -14.648571,29.85342 -1.717725,0.68093 -3.584009,1.09333 -5.418667,1.28986 -2.738996,0.29341 -5.499468,0.21668 -8.212667,-0.29169 -1.772253,-0.33207 -3.549757,-0.89987 -5.164667,-1.70535 -11.569609,-5.77067 -13.600534,-20.57363 -12.792232,-32.10958 0.539709,-7.70267 3.017656,-16.08193 9.236232,-21.12773 3.599388,-2.92057 7.710414,-3.88864 12.192001,-4.41743 m -175.006,20.6345 c 0.0767,-1.78241 0.70952,-3.6542 1.27,-5.334 1.805045,-5.40985 5.551586,-10.0369 10.583331,-12.75854 6.669133,-3.60729 16.035548,-3.11194 22.352,1.01901 4.470859,2.92393 7.457106,7.28406 8.500505,12.50153 0.216545,1.08282 0.390673,2.19994 0.466586,3.302 0.0183,0.26578 0.160693,0.9145 0.0019,1.13424 -0.134638,0.1863 -0.474349,0.13535 -0.671649,0.13576 h -1.947334 -7.958667 -32.596662 m 483.362001,0 h -29.80266 -9.144 c -1.32366,0 -3.04957,0.29025 -4.318,-0.0847 1.54611,-7.97389 5.44368,-15.20554 13.208,-18.63836 9.32635,-4.12345 21.54944,-0.98617 27.08874,7.71636 2.01241,3.16157 2.96739,7.27581 2.96792,11.00667 m -122.936,-20.23534 c 0,9.93923 -0.0847,19.86482 -0.0847,29.80267 0,5.32857 -0.0967,10.84325 -1.15152,16.08667 -0.51631,2.5666 -1.64137,4.49858 -3.28406,6.51933 -6.19456,7.62025 -17.92449,9.69444 -26.04442,3.79713 -3.83795,-2.78741 -6.35922,-7.11611 -7.96318,-11.5018 -1.99123,-5.44467 -2.6216,-11.34497 -2.36951,-17.10266 0.18997,-4.33838 0.68139,-8.63808 2.06359,-12.78467 1.96784,-5.90357 5.49957,-11.62248 11.5711,-13.93407 3.40146,-1.29502 6.77048,-0.8826 10.32933,-0.8826 z" id="path1"></path></g></svg>