<?xml version="1.0" encoding="UTF-8" standalone="no"?>
<!--
  Favicon: just the "R" extracted from the full Resonate wordmark
  (public/ResonateLogo.svg) in the brand yellow. Square viewBox tightly
  cropped to the R glyph so it stays readable at 16×16/32×32 tab sizes.

  The path is the first subpath of the original wordmark, kept verbatim.
  The original wordmark's outer <g transform="translate(188.76175, -91.335703)">
  positioned the path inside its own viewBox; we apply the same transform
  here, then size the viewBox down to ~80 × 114 so it wraps just the R.
-->
<svg
  xmlns="http://www.w3.org/2000/svg"
  viewBox="-2 -2 84 119"
  width="64" height="64"
>
  <g transform="translate(188.76175, -91.335703)">
    <path
      fill="#f1cb13"
      d="M -188.76175,91.477001 V 105.447 c 8.13211,0 16.25107,0.0847 24.384,0.0847 5.37721,0 11.43508,-0.22446 16.34067,2.30789 8.78795,4.53646 11.53093,17.21848 7.17472,25.71677 -1.45,2.82872 -3.67564,5.0863 -6.41272,6.68769 -6.03439,3.53056 -13.2917,3.64165 -20.066,3.64165 h -21.42067 v 14.1393 h 20.48934 c 4.39657,0 8.85133,-0.24172 13.208,0.40034 5.12194,0.75484 10.54414,2.93205 13.51661,7.38899 1.29318,1.939 2.45599,4.29714 2.87279,6.604 0.48492,2.68388 0.20526,5.57659 0.20526,8.29734 v 13.54666 5.67267 c 0,1.03897 -0.11127,2.12677 0.4707,3.048 0.72031,1.14021 2.08918,1.60571 3.3393,1.8922 2.60874,0.59783 5.69887,0.58851 8.29734,-0.0613 1.19297,-0.29832 2.42805,-0.81543 3.0921,-1.91559 0.77525,-1.28441 0.4639,-3.1373 0.4639,-4.572 v -10.16 -11.00666 c 0,-3.90409 0.005,-7.6243 -1.35917,-11.34534 -1.37754,-3.75712 -3.79795,-6.85154 -6.5995,-9.652 -1.54466,-1.54406 -3.51438,-3.37292 -5.50333,-4.318 V 151.675 c 1.28607,-0.48676 2.50634,-1.60913 3.556,-2.4765 3.38724,-2.79898 5.97573,-6.49394 7.60308,-10.56217 5.22845,-13.07066 2.95408,-30.65457 -8.53442,-39.737009 -7.00353,-5.53677 -15.97667,-6.96168 -24.638,-7.34098 -10.13535,-0.44386 -20.33587,-0.0881 -30.48,-0.0813 z"
    />
  </g>
</svg>
